<?xml version="1.0" encoding="utf-8"?>
<!-- Generator: Adobe Illustrator 16.0.0, SVG Export Plug-In . SVG Version: 6.00 Build 0)  -->
<!DOCTYPE svg PUBLIC "-//W3C//DTD SVG 1.1//EN" "http://www.w3.org/Graphics/SVG/1.1/DTD/svg11.dtd">
<svg version="1.1" id="레이어_1" xmlns="http://www.w3.org/2000/svg" xmlns:xlink="http://www.w3.org/1999/xlink" x="0px"
	 y="0px" width="554.578px" height="605.581px" viewBox="0 0 554.578 605.581" enable-background="new 0 0 554.578 605.581"
	 xml:space="preserve">
<path fill-rule="evenodd" clip-rule="evenodd" fill="#CDD0D2" d="M282.617,288.367c0.525-5.183-1.787-8.607-2.783-12.237
	c-1.754-6.394-4.031-12.647-6.188-18.926c-1.06-3.084-0.699-5.519,1.49-8.235c11.023-13.681,21.789-27.569,32.68-41.356
	c2.963-3.749,4.029-3.462,6.555,0.672c10.908,17.85,21.963,35.61,32.904,53.44c5.289,8.619,10.43,17.328,15.672,25.974
	c1.203,1.983,1.084,3.531-0.6,5.318c-8.084,8.587-16.08,17.258-24.023,25.977c-1.854,2.034-4.107,1.852-6.432,1.852
	c-32.652-0.007-65.303-0.009-97.955-0.009c-45.07,0-90.141,0.003-135.21,0.001c-6.633,0-6.798-0.113-3.439-5.561
	c14.64-23.741,29.379-47.421,44.092-71.117c16.202-26.093,32.413-52.181,48.623-78.269c0.701-1.128,1.415-2.25,2.159-3.35
	c2.006-2.966,3.705-3.916,6.249-0.142c15.673,23.25,31.522,46.379,47.305,69.555c12.137,17.823,24.259,35.656,36.403,53.474
	C280.639,286.189,281.315,286.844,282.617,288.367z"/>
<path fill-rule="evenodd" clip-rule="evenodd" fill="#AFB2B6" d="M255.505,23.88c65.165,0,130.331,0.157,195.495-0.125
	c13.977-0.061,25.215,4.637,32.908,16.018c4.174,6.176,7.357,13.268,6.174,21.415c-0.5,3.429-0.137,6.985-0.139,10.483
	c-0.018,25.333-0.248,50.669,0.104,75.997c0.094,6.666-1.039,12.062-6.633,16.043c-2.512,1.79-4.26,6.55-7.016,5.476
	c-2.883-1.125-1.113-5.699-1.125-8.705c-0.127-33.499-0.094-66.999-0.119-100.498c-0.008-12.216-9.16-21.368-21.455-21.369
	c-132.498-0.012-264.998,0.082-397.495-0.183c-9.881-0.02-21.54,9.87-21.514,21.681c0.208,96.331,0.319,192.664-0.099,288.995
	c-0.066,15.268,10.074,25.083,24.886,24.987c50.164-0.322,100.33-0.116,150.496-0.114c23.666,0,47.333-0.018,70.999,0.021
	c1.422,0.003,3.381-0.782,4.169,0.677c0.884,1.638-1.179,2.531-2.054,3.568c-2.568,3.047-5.399,5.87-8.067,8.836
	c-1.404,1.56-3.188,1.563-5.046,1.563c-71.665-0.014-143.33,0.078-214.995-0.088c-19.065-0.044-34.79-16.216-34.836-35.282
	c-0.092-38.166-0.023-76.332-0.025-114.498c-0.003-59.439-0.007-118.879-0.017-178.319c-0.001-7.479,1.626-14.412,6.004-20.677
	c7.175-10.269,16.829-15.855,29.404-15.864c66.666-0.047,133.331-0.022,199.997-0.022C255.505,23.891,255.505,23.886,255.505,23.88z
	"/>
<path fill-rule="evenodd" clip-rule="evenodd" fill="#AFB2B6" d="M539.713,143.428c-0.215,1.45-1.389,2.226-2.283,3.179
	c-16.168,17.222-32.371,34.41-48.518,51.651c-19.1,20.396-38.16,40.831-57.227,61.26c-18.271,19.577-36.666,39.041-54.752,58.787
	c-18.537,20.24-37.338,40.23-56.176,60.189c-17.234,18.261-34.27,36.712-51.244,55.218c-2.969,3.238-5.199,3.633-7.92,0.066
	c-0.801-1.049-1.793-1.998-2.846-2.801c-3.192-2.43-2.784-4.398-0.084-7.248c20.013-21.137,39.86-42.429,59.742-63.69
	c13.859-14.821,27.699-29.66,41.531-44.509c17.797-19.105,35.563-38.24,53.367-57.337c14.516-15.572,29.08-31.1,43.607-46.662
	c18.5-19.817,37.107-39.538,55.396-59.547c4.943-5.408,10.111-10.589,15.059-15.984c0.764-0.833,1.223-1.994,2.66-2.005
	C531.865,133.981,539.816,141.66,539.713,143.428z"/>
<path fill-rule="evenodd" clip-rule="evenodd" fill="#AFB2B6" d="M489.91,289.102c-0.004,20.821,0.033,41.642-0.016,62.463
	c-0.051,21.691-15.289,37.037-36.932,37.071c-38.809,0.061-77.619,0.016-116.43-0.024c-1.723-0.001-4.076,0.815-4.855-1.389
	c-0.658-1.862,1.674-2.596,2.58-3.899c5.441-7.838,12.82-9.744,22.271-9.57c31.805,0.588,63.625,0.201,95.439,0.187
	c9.82-0.004,17.238-3.938,21.566-13.056c1.322-2.786,1.676-5.669,1.674-8.713c-0.035-35.646,0.313-71.297-0.238-106.935
	c-0.139-8.989,1.682-16.147,8.412-21.994c0.752-0.653,1.385-1.444,2.115-2.125c0.947-0.883,1.768-2.407,3.252-1.902
	c1.916,0.652,1.131,2.552,1.135,3.924C489.928,245.127,489.914,267.114,489.91,289.102z"/>
<path fill-rule="evenodd" clip-rule="evenodd" fill="#CDD0D2" d="M378.01,130.292c1.535,13.478-12.813,28.101-27.633,27.71
	c-16.271-0.428-28.492-14.058-28.139-28.309c0.371-14.934,11.453-27.77,28.371-27.938
	C364.684,101.615,379.449,114.652,378.01,130.292z"/>
<g>
	<path fill="#AFB2B6" d="M80.414,563.507c0,1.751-0.226,3.211-0.673,4.379c-0.449,1.165-1.058,2.097-1.828,2.791
		c-0.77,0.693-1.635,1.205-2.598,1.533c-0.961,0.329-1.957,0.493-2.982,0.493c-2.117,0-4.009-0.384-5.675-1.15
		c-1.669-0.767-2.982-1.989-3.945-3.667l-25.974-44.779v41.166c0,2.991-0.835,5.146-2.501,6.46
		c-1.668,1.313-3.528,1.971-5.581,1.971c-1.091,0-2.149-0.164-3.174-0.493c-1.026-0.328-1.941-0.84-2.742-1.533
		c-0.803-0.694-1.443-1.57-1.924-2.628s-0.722-2.317-0.722-3.776v-66.894c0-0.876,0.176-1.752,0.529-2.628
		c0.353-0.875,0.882-1.695,1.588-2.462c0.705-0.768,1.587-1.386,2.646-1.862c1.059-0.475,2.324-0.712,3.8-0.712
		c1.347,0,2.533,0.108,3.56,0.329c1.025,0.219,1.956,0.603,2.79,1.149c0.833,0.548,1.636,1.297,2.405,2.245
		c0.77,0.949,1.57,2.152,2.405,3.612l23.954,41.933v-41.166c0-2.772,0.881-4.817,2.646-6.132c1.764-1.313,3.736-1.971,5.917-1.971
		c1.026,0,2.021,0.164,2.982,0.492c0.962,0.33,1.828,0.822,2.598,1.479c0.77,0.657,1.378,1.498,1.828,2.519
		c0.448,1.023,0.673,2.228,0.673,3.613V563.507z"/>
	<path fill="#AFB2B6" d="M118.798,517.414c3.399,0,6.653,0.548,9.765,1.643c3.11,1.095,5.883,2.628,8.321,4.598
		c2.437,1.971,4.44,4.344,6.013,7.116c1.571,2.775,2.485,5.877,2.742,9.308c0.128,1.823,0.193,3.612,0.193,5.363
		c0,1.753-0.065,3.503-0.193,5.256c-0.192,3.432-1.026,6.532-2.501,9.307c-1.477,2.772-3.415,5.145-5.821,7.114
		c-2.405,1.971-5.194,3.505-8.369,4.6c-3.175,1.094-6.559,1.643-10.15,1.643c-3.593,0-6.942-0.549-10.053-1.643
		c-3.111-1.095-5.868-2.646-8.273-4.653c-2.406-2.009-4.346-4.396-5.82-7.171c-1.477-2.772-2.342-5.839-2.598-9.196
		c-0.192-3.575-0.192-7.116,0-10.619c0.255-3.431,1.106-6.552,2.549-9.361s3.35-5.201,5.724-7.171
		c2.372-1.972,5.13-3.484,8.274-4.545C111.742,517.945,115.143,517.414,118.798,517.414z M129.477,539.859
		c-0.192-3.066-1.25-5.367-3.174-6.898c-1.924-1.532-4.426-2.3-7.504-2.3c-2.822,0-5.211,0.822-7.167,2.463
		c-1.957,1.643-3.095,3.887-3.415,6.735c-0.385,3.794-0.385,7.443,0,10.946c0,3.066,1.01,5.421,3.03,7.063
		c2.021,1.643,4.537,2.462,7.552,2.462c2.95,0,5.387-0.819,7.312-2.462s3.045-3.997,3.367-7.063
		c0.192-1.896,0.272-3.776,0.241-5.638C129.684,543.307,129.604,541.537,129.477,539.859z"/>
	<path fill="#AFB2B6" d="M186.138,497.817c0-2.772,0.881-4.817,2.646-6.132c1.763-1.313,3.734-1.971,5.916-1.971
		c1.025,0,2.036,0.164,3.031,0.492c0.994,0.33,1.876,0.822,2.646,1.479c0.769,0.657,1.378,1.498,1.827,2.519
		c0.448,1.023,0.674,2.228,0.674,3.613v66.455c0,1.459-0.226,2.719-0.674,3.776c-0.449,1.058-1.058,1.934-1.827,2.628
		c-0.77,0.693-1.652,1.205-2.646,1.533c-0.995,0.329-2.005,0.493-3.031,0.493c-1.091,0-2.149-0.164-3.174-0.493
		c-1.027-0.328-1.941-0.84-2.742-1.533c-0.803-0.694-1.443-1.57-1.925-2.628c-0.481-1.058-0.721-2.317-0.721-3.776V497.817z"/>
	<path fill="#AFB2B6" d="M216.249,526.173c0-2.772,0.85-4.817,2.549-6.13c1.699-1.315,3.608-1.972,5.724-1.972
		c1.924,0,3.463,0.476,4.618,1.424c1.155,0.95,1.924,2.008,2.309,3.174c1.475-2.115,3.271-3.52,5.388-4.215
		c2.116-0.693,4.392-1.04,6.83-1.04c7.504,0,13.308,2.483,17.413,7.444c3.656-4.961,9.043-7.444,16.162-7.444
		c3.526,0,6.797,0.492,9.813,1.479c3.014,0.985,5.595,2.447,7.744,4.379c2.148,1.936,3.832,4.326,5.052,7.171
		c1.217,2.848,1.827,6.132,1.827,9.854v24.414c0,2.48-0.546,4.435-1.636,5.857c-1.091,1.425-3.207,2.136-6.349,2.136
		c-2.438,0-4.426-0.658-5.965-1.971c-1.539-1.314-2.309-3.249-2.309-5.804v-24.851c0-2.92-0.786-5.219-2.357-6.898
		c-1.572-1.679-3.769-2.519-6.59-2.519c-2.886,0-5.147,0.859-6.783,2.573c-1.635,1.716-2.453,4.105-2.453,7.172v24.852
		c0,2.48-0.611,4.341-1.828,5.584c-1.219,1.24-3.4,1.861-6.542,1.861c-5.324,0-7.985-2.446-7.985-7.335v-25.29
		c0-2.92-0.802-5.219-2.405-6.898c-1.604-1.679-3.752-2.519-6.446-2.519c-3.463,0-5.885,0.985-7.264,2.957
		c-1.379,1.97-2.068,4.562-2.068,7.772v22.006c0,3.066-0.642,5.381-1.924,6.953c-1.284,1.567-3.463,2.354-6.542,2.354
		c-2.438,0-4.377-0.641-5.82-1.917c-1.443-1.277-2.165-3.084-2.165-5.418V526.173z"/>
	<path fill="#AFB2B6" d="M360.744,565.258c0,2.335-0.706,4.143-2.116,5.419c-1.411,1.276-3.335,1.916-5.772,1.916
		c-3.336,0-5.645-0.949-6.926-2.846c-1.154,0.801-2.391,1.44-3.704,1.915c-1.315,0.476-2.646,0.84-3.993,1.096
		c-1.346,0.255-2.645,0.419-3.896,0.493c-1.251,0.07-2.356,0.109-3.319,0.109c-3.848,0-7.104-0.457-9.765-1.368
		c-2.661-0.915-4.826-2.118-6.493-3.614c-1.668-1.496-2.871-3.174-3.607-5.036c-0.738-1.861-1.14-3.777-1.203-5.748
		c-0.385-6.422,1.684-11.203,6.205-14.343c4.521-3.135,11.271-4.707,20.251-4.707h8.081c-0.129-2.188-1.154-4.177-3.078-5.967
		c-1.924-1.788-4.715-2.683-8.37-2.683c-2.63,0-4.714,0.219-6.253,0.657c-1.539,0.438-2.758,0.877-3.656,1.313
		c-1.731,0.805-3.415,1.169-5.051,1.096c-1.635-0.072-2.871-1.167-3.703-3.285c-0.707-1.896-0.803-3.593-0.289-5.09
		c0.513-1.496,1.539-2.683,3.079-3.559c1.987-1.167,4.473-2.098,7.455-2.792c2.982-0.692,5.917-1.04,8.803-1.04
		c4.81,0,8.931,0.621,12.362,1.861c3.43,1.243,6.254,2.9,8.466,4.981c2.212,2.08,3.848,4.488,4.906,7.226s1.587,5.567,1.587,8.484
		V565.258z M344.582,550.369h-8.465c-3.978,0-6.655,0.456-8.033,1.368c-1.381,0.912-2.068,2.281-2.068,4.105
		c0,1.532,0.561,2.792,1.684,3.777c1.121,0.984,2.741,1.478,4.857,1.478c1.54,0,3.031-0.22,4.474-0.656
		c1.443-0.438,2.726-1.041,3.849-1.807c1.121-0.766,2.021-1.659,2.693-2.684c0.674-1.021,1.01-2.151,1.01-3.393V550.369z"/>
	<path fill="#AFB2B6" d="M426.644,573.032c0,4.012-0.673,7.515-2.021,10.51c-1.347,2.991-3.256,5.474-5.725,7.444
		c-2.469,1.97-5.403,3.448-8.802,4.434c-3.399,0.986-7.119,1.479-11.159,1.479c-4.041,0-7.569-0.439-10.583-1.314
		c-3.015-0.876-5.452-1.935-7.312-3.175c-0.77-0.511-1.411-1.148-1.924-1.916c-0.515-0.767-0.865-1.587-1.059-2.463
		c-0.191-0.876-0.225-1.734-0.096-2.573c0.128-0.839,0.385-1.625,0.77-2.354c0.513-0.949,1.138-1.643,1.876-2.08
		c0.737-0.438,1.539-0.677,2.405-0.713c0.865-0.037,1.763,0.073,2.693,0.33c0.929,0.254,1.843,0.601,2.742,1.039
		c1.217,0.584,2.66,1.15,4.329,1.698c1.667,0.548,3.56,0.82,5.676,0.82c4.169,0,7.198-0.913,9.091-2.737
		c1.892-1.824,2.838-4.343,2.838-7.555v-3.612c-1.539,1.24-3.223,2.062-5.051,2.464c-1.827,0.398-3.768,0.603-5.82,0.603
		c-3.463,0-6.768-0.438-9.908-1.315c-3.143-0.876-5.916-2.227-8.321-4.051c-2.405-1.825-4.347-4.179-5.82-7.062
		c-1.477-2.882-2.31-6.296-2.502-10.235c-0.129-1.824-0.192-3.613-0.192-5.364c0-1.752,0.063-3.505,0.192-5.255
		c0.32-3.943,1.234-7.353,2.741-10.237c1.508-2.882,3.464-5.237,5.869-7.063c2.405-1.822,5.146-3.175,8.226-4.051
		c3.079-0.875,6.315-1.313,9.716-1.313c4.938,0,9.203,1.023,12.796,3.065c1.602-1.677,3.622-2.518,6.061-2.518
		c1.024,0,2.035,0.164,3.03,0.492c0.993,0.329,1.876,0.821,2.646,1.479s1.396,1.496,1.876,2.519c0.48,1.021,0.722,2.227,0.722,3.612
		V573.032z M389.125,539.529c-0.13,1.605-0.193,3.432-0.193,5.475c0,2.045,0.063,4.014,0.193,5.911
		c0.255,2.994,1.313,5.312,3.174,6.954c1.859,1.643,4.265,2.462,7.215,2.462c3.014,0,5.436-0.638,7.264-1.916
		c1.828-1.275,2.901-3.448,3.224-6.515c0.191-1.896,0.303-3.94,0.335-6.13c0.033-2.189-0.08-4.161-0.335-5.911
		c-0.386-2.993-1.478-5.272-3.271-6.844c-1.796-1.568-4.202-2.354-7.216-2.354c-2.95,0-5.355,0.676-7.215,2.026
		C390.438,534.039,389.38,536.318,389.125,539.529z"/>
	<path fill="#AFB2B6" d="M464.066,517.195c3.526,0,6.862,0.565,10.005,1.697c3.142,1.132,5.899,2.682,8.273,4.653
		c2.372,1.97,4.248,4.323,5.628,7.062c1.378,2.737,2.068,5.676,2.068,8.813c0,2.557-0.369,4.598-1.106,6.132
		c-0.737,1.532-1.7,2.718-2.886,3.558c-1.188,0.84-2.55,1.388-4.089,1.643c-1.54,0.255-3.111,0.382-4.714,0.382h-24.051
		c0.063,3.139,1.234,5.566,3.512,7.281c2.275,1.717,5.436,2.573,9.476,2.573c2.563,0,4.97-0.419,7.216-1.259
		c2.244-0.838,4.104-1.551,5.579-2.136c1.603-0.583,3.175-0.838,4.714-0.767c1.539,0.073,2.79,0.986,3.752,2.737
		c0.77,1.387,1.059,2.902,0.866,4.545s-1.092,2.972-2.694,3.995c-1.861,1.386-4.521,2.608-7.984,3.668
		c-3.463,1.058-7.408,1.588-11.833,1.588c-4.298,0-8.178-0.549-11.641-1.643c-3.463-1.095-6.431-2.646-8.899-4.653
		c-2.469-2.009-4.41-4.396-5.819-7.171c-1.411-2.772-2.214-5.839-2.405-9.196c-0.192-3.794-0.192-7.518,0-11.168
		c0.063-2.992,0.77-5.838,2.116-8.54c1.347-2.699,3.206-5.071,5.58-7.116c2.372-2.042,5.195-3.666,8.466-4.872
		C456.466,517.798,460.089,517.195,464.066,517.195z M471.762,539.42c1.091,0,1.844-0.071,2.262-0.219
		c0.416-0.146,0.625-0.548,0.625-1.204c0-2.336-1.01-4.286-3.03-5.857c-2.021-1.568-4.569-2.354-7.648-2.354
		c-1.476,0-2.854,0.184-4.136,0.548c-1.284,0.365-2.422,0.895-3.416,1.587c-0.995,0.694-1.779,1.533-2.357,2.518
		c-0.576,0.985-0.865,2.063-0.865,3.23v1.751H471.762z"/>
</g>
</svg>
