<?xml version="1.0" encoding="utf-8"?>
<!-- Generator: Adobe Illustrator 16.0.0, SVG Export Plug-In . SVG Version: 6.00 Build 0)  -->
<!DOCTYPE svg PUBLIC "-//W3C//DTD SVG 1.1//EN" "http://www.w3.org/Graphics/SVG/1.1/DTD/svg11.dtd">
<svg version="1.1" id="레이어_1" xmlns="http://www.w3.org/2000/svg" xmlns:xlink="http://www.w3.org/1999/xlink" x="0px"
	 y="0px" width="417.88px" height="417.879px" viewBox="0 0 417.88 417.879" enable-background="new 0 0 417.88 417.879"
	 xml:space="preserve">
<rect fill-rule="evenodd" clip-rule="evenodd" fill="#E2E2E2" width="417.88" height="417.879"/>
<g>
	<path fill-rule="evenodd" clip-rule="evenodd" fill="#CDD0D2" d="M225.919,206.701c0.24-2.365-0.815-3.928-1.271-5.586
		c-0.8-2.918-1.84-5.772-2.824-8.639c-0.483-1.408-0.319-2.52,0.681-3.76c5.031-6.245,9.945-12.585,14.918-18.879
		c1.352-1.711,1.839-1.58,2.992,0.307c4.979,8.148,10.025,16.257,15.02,24.396c2.415,3.934,4.762,7.909,7.154,11.856
		c0.549,0.905,0.495,1.611-0.273,2.428c-3.69,3.92-7.34,7.878-10.967,11.858c-0.846,0.929-1.875,0.845-2.936,0.845
		c-14.905-0.003-29.811-0.004-44.715-0.004c-20.574,0-41.148,0.002-61.722,0.001c-3.028,0-3.103-0.052-1.57-2.538
		c6.683-10.838,13.411-21.647,20.127-32.465c7.396-11.911,14.796-23.819,22.196-35.729c0.32-0.515,0.646-1.026,0.985-1.529
		c0.916-1.354,1.691-1.787,2.853-0.064c7.154,10.613,14.389,21.172,21.594,31.751c5.541,8.136,11.074,16.276,16.618,24.41
		C225.017,205.708,225.325,206.007,225.919,206.701z"/>
	<path fill-rule="evenodd" clip-rule="evenodd" fill="#AFB2B6" d="M213.543,85.967c29.747,0,59.495,0.072,89.241-0.057
		c6.38-0.027,11.51,2.116,15.021,7.312c1.906,2.819,3.359,6.057,2.818,9.775c-0.228,1.565-0.063,3.188-0.063,4.786
		c-0.008,11.564-0.113,23.13,0.047,34.691c0.043,3.043-0.475,5.506-3.027,7.324c-1.146,0.816-1.945,2.989-3.203,2.499
		c-1.316-0.514-0.508-2.602-0.514-3.974c-0.058-15.292-0.043-30.584-0.055-45.876c-0.003-5.577-4.181-9.754-9.793-9.755
		c-60.484-0.005-120.968,0.037-181.452-0.083c-4.511-0.009-9.833,4.506-9.821,9.897c0.095,43.974,0.146,87.948-0.045,131.922
		c-0.03,6.97,4.599,11.45,11.36,11.406c22.899-0.146,45.8-0.053,68.7-0.052c10.803,0,21.607-0.009,32.411,0.009
		c0.648,0.002,1.543-0.356,1.902,0.31c0.404,0.747-0.537,1.155-0.938,1.629c-1.172,1.391-2.465,2.68-3.683,4.033
		c-0.641,0.712-1.455,0.714-2.304,0.713c-32.714-0.006-65.428,0.036-98.142-0.04c-8.703-0.02-15.881-7.402-15.902-16.105
		c-0.042-17.423-0.01-34.845-0.011-52.267c-0.001-27.134-0.003-54.268-0.008-81.4c-0.001-3.415,0.742-6.579,2.741-9.438
		c3.275-4.688,7.682-7.238,13.422-7.242c30.432-0.021,60.864-0.01,91.296-0.01C213.543,85.972,213.543,85.97,213.543,85.967z"/>
	<path fill-rule="evenodd" clip-rule="evenodd" fill="#AFB2B6" d="M343.28,140.539c-0.098,0.662-0.634,1.016-1.042,1.451
		c-7.381,7.861-14.777,15.708-22.147,23.578c-8.719,9.311-17.42,18.639-26.123,27.964c-8.342,8.937-16.738,17.821-24.994,26.836
		c-8.462,9.239-17.045,18.364-25.644,27.476c-7.867,8.336-15.644,16.759-23.392,25.207c-1.355,1.479-2.374,1.658-3.615,0.029
		c-0.366-0.479-0.818-0.912-1.3-1.277c-1.457-1.109-1.271-2.008-0.038-3.309c9.136-9.649,18.195-19.369,27.271-29.074
		c6.326-6.766,12.645-13.539,18.959-20.317c8.123-8.722,16.233-17.456,24.361-26.175c6.625-7.107,13.273-14.196,19.906-21.3
		c8.444-9.046,16.938-18.049,25.287-27.183c2.257-2.469,4.615-4.834,6.874-7.297c0.349-0.38,0.558-0.91,1.214-0.915
		C339.698,136.227,343.327,139.731,343.28,140.539z"/>
	<path fill-rule="evenodd" clip-rule="evenodd" fill="#AFB2B6" d="M320.546,207.037c-0.002,9.505,0.016,19.009-0.007,28.514
		c-0.023,9.902-6.979,16.907-16.858,16.923c-17.717,0.027-35.433,0.007-53.149-0.012c-0.786,0-1.86,0.373-2.216-0.634
		c-0.301-0.85,0.764-1.185,1.178-1.779c2.483-3.578,5.852-4.448,10.166-4.369c14.519,0.269,29.044,0.092,43.566,0.085
		c4.483-0.002,7.869-1.798,9.846-5.96c0.604-1.271,0.765-2.588,0.764-3.977c-0.016-16.272,0.143-32.547-0.108-48.814
		c-0.063-4.104,0.768-7.372,3.84-10.04c0.343-0.299,0.632-0.659,0.966-0.971c0.432-0.402,0.807-1.099,1.484-0.868
		c0.875,0.298,0.516,1.165,0.518,1.791C320.554,186.964,320.548,197,320.546,207.037z"/>
	<path fill-rule="evenodd" clip-rule="evenodd" fill="#CDD0D2" d="M269.465,134.543c0.7,6.152-5.849,12.827-12.614,12.649
		c-7.428-0.195-13.006-6.417-12.845-12.923c0.169-6.817,5.229-12.677,12.951-12.754
		C263.382,121.452,270.122,127.403,269.465,134.543z"/>
	<g>
		<path fill="#AFB2B6" d="M133.616,332.3c0,0.799-0.103,1.465-0.308,1.998c-0.205,0.531-0.483,0.957-0.834,1.275
			c-0.352,0.316-0.747,0.549-1.186,0.699c-0.439,0.15-0.893,0.225-1.361,0.225c-0.966,0-1.83-0.176-2.591-0.525
			c-0.762-0.35-1.361-0.908-1.801-1.674l-11.857-20.441v18.793c0,1.365-0.381,2.348-1.142,2.947c-0.762,0.6-1.611,0.9-2.548,0.9
			c-0.498,0-0.981-0.074-1.449-0.225c-0.469-0.15-0.886-0.383-1.251-0.699c-0.367-0.318-0.659-0.719-0.878-1.201
			c-0.22-0.482-0.33-1.057-0.33-1.723v-30.537c0-0.4,0.08-0.799,0.241-1.199c0.161-0.398,0.403-0.773,0.725-1.125
			c0.322-0.35,0.725-0.631,1.208-0.85c0.483-0.217,1.061-0.324,1.734-0.324c0.615,0,1.157,0.049,1.625,0.15
			c0.468,0.1,0.893,0.273,1.274,0.523c0.38,0.252,0.747,0.592,1.098,1.025c0.352,0.434,0.717,0.982,1.098,1.648l10.935,19.143
			v-18.791c0-1.266,0.402-2.199,1.208-2.801c0.805-0.598,1.705-0.898,2.701-0.898c0.468,0,0.922,0.074,1.361,0.225
			c0.439,0.15,0.834,0.375,1.186,0.674c0.351,0.301,0.629,0.684,0.834,1.15c0.205,0.467,0.308,1.018,0.308,1.65V332.3z"/>
		<path fill="#AFB2B6" d="M151.138,311.259c1.551,0,3.037,0.25,4.458,0.75c1.419,0.5,2.686,1.199,3.798,2.098
			c1.112,0.9,2.027,1.982,2.745,3.25c0.717,1.266,1.135,2.682,1.252,4.248c0.058,0.832,0.088,1.648,0.088,2.447
			c0,0.801-0.03,1.6-0.088,2.4c-0.088,1.566-0.469,2.982-1.142,4.248c-0.674,1.266-1.559,2.348-2.657,3.248
			c-1.098,0.898-2.371,1.6-3.82,2.1c-1.449,0.498-2.994,0.75-4.633,0.75c-1.64,0-3.169-0.252-4.589-0.75
			c-1.42-0.5-2.679-1.209-3.776-2.125c-1.098-0.916-1.984-2.008-2.657-3.273c-0.674-1.266-1.069-2.666-1.186-4.197
			c-0.088-1.633-0.088-3.248,0-4.848c0.117-1.566,0.505-2.99,1.164-4.273s1.529-2.375,2.613-3.273c1.083-0.9,2.342-1.59,3.777-2.074
			C147.917,311.501,149.469,311.259,151.138,311.259z M156.013,321.505c-0.088-1.4-0.571-2.451-1.449-3.15s-2.02-1.049-3.425-1.049
			c-1.289,0-2.379,0.375-3.272,1.125s-1.413,1.773-1.559,3.074c-0.176,1.732-0.176,3.396,0,4.996c0,1.4,0.461,2.475,1.383,3.225
			c0.923,0.75,2.071,1.125,3.448,1.125c1.346,0,2.459-0.375,3.337-1.125s1.39-1.824,1.537-3.225c0.088-0.865,0.124-1.725,0.11-2.574
			C156.107,323.078,156.071,322.271,156.013,321.505z"/>
		<path fill="#AFB2B6" d="M181.878,302.314c0-1.266,0.402-2.199,1.208-2.801c0.805-0.598,1.705-0.898,2.7-0.898
			c0.468,0,0.929,0.074,1.384,0.225c0.453,0.15,0.856,0.375,1.208,0.674c0.351,0.301,0.629,0.684,0.834,1.15
			c0.204,0.467,0.307,1.018,0.307,1.65v30.336c0,0.666-0.103,1.24-0.307,1.723c-0.205,0.482-0.483,0.883-0.834,1.201
			c-0.352,0.316-0.754,0.549-1.208,0.699c-0.455,0.15-0.916,0.225-1.384,0.225c-0.498,0-0.981-0.074-1.449-0.225
			c-0.469-0.15-0.886-0.383-1.251-0.699c-0.367-0.318-0.659-0.719-0.879-1.201c-0.219-0.482-0.329-1.057-0.329-1.723V302.314z"/>
		<path fill="#AFB2B6" d="M195.623,315.257c0-1.266,0.388-2.199,1.164-2.799c0.775-0.6,1.647-0.9,2.613-0.9
			c0.878,0,1.581,0.217,2.108,0.65c0.527,0.434,0.878,0.918,1.054,1.449c0.673-0.965,1.493-1.607,2.459-1.924
			c0.966-0.316,2.005-0.475,3.118-0.475c3.426,0,6.075,1.133,7.948,3.398c1.67-2.266,4.129-3.398,7.379-3.398
			c1.609,0,3.102,0.225,4.479,0.674c1.376,0.451,2.555,1.117,3.535,2s1.75,1.975,2.307,3.273c0.555,1.299,0.834,2.799,0.834,4.498
			v11.145c0,1.133-0.25,2.023-0.747,2.674c-0.498,0.65-1.464,0.975-2.897,0.975c-1.113,0-2.021-0.301-2.724-0.9
			s-1.054-1.482-1.054-2.648v-11.344c0-1.334-0.359-2.383-1.076-3.15c-0.718-0.766-1.721-1.148-3.008-1.148
			c-1.318,0-2.35,0.393-3.096,1.174c-0.747,0.783-1.12,1.875-1.12,3.273v11.346c0,1.133-0.278,1.982-0.835,2.549
			s-1.552,0.85-2.986,0.85c-2.43,0-3.645-1.117-3.645-3.348v-11.545c0-1.334-0.366-2.383-1.098-3.15
			c-0.732-0.766-1.713-1.148-2.943-1.148c-1.581,0-2.686,0.449-3.315,1.35c-0.63,0.898-0.944,2.082-0.944,3.547v10.047
			c0,1.398-0.292,2.455-0.878,3.174c-0.586,0.715-1.581,1.074-2.986,1.074c-1.113,0-1.999-0.293-2.657-0.875
			c-0.659-0.582-0.988-1.408-0.988-2.473V315.257z"/>
		<path fill="#AFB2B6" d="M261.583,333.099c0,1.066-0.322,1.891-0.966,2.475c-0.644,0.582-1.522,0.873-2.635,0.873
			c-1.522,0-2.577-0.434-3.161-1.299c-0.527,0.365-1.092,0.658-1.691,0.875c-0.601,0.217-1.207,0.383-1.822,0.5
			c-0.615,0.115-1.208,0.191-1.779,0.225c-0.57,0.033-1.075,0.051-1.515,0.051c-1.757,0-3.243-0.209-4.458-0.625
			c-1.215-0.418-2.203-0.967-2.963-1.65c-0.762-0.682-1.312-1.449-1.647-2.299c-0.337-0.85-0.521-1.725-0.55-2.623
			c-0.175-2.932,0.77-5.115,2.833-6.547s5.146-2.15,9.245-2.15h3.688c-0.06-0.998-0.527-1.906-1.405-2.723
			c-0.879-0.816-2.152-1.225-3.82-1.225c-1.201,0-2.152,0.1-2.855,0.299c-0.702,0.201-1.258,0.4-1.668,0.6
			c-0.791,0.367-1.56,0.535-2.307,0.5c-0.746-0.033-1.311-0.531-1.689-1.5c-0.323-0.863-0.367-1.639-0.133-2.322
			s0.703-1.225,1.406-1.625c0.906-0.531,2.041-0.957,3.402-1.273s2.701-0.475,4.019-0.475c2.196,0,4.077,0.283,5.644,0.85
			c1.565,0.566,2.854,1.322,3.864,2.273c1.01,0.949,1.757,2.049,2.239,3.299c0.484,1.25,0.725,2.541,0.725,3.873V333.099z
			 M254.206,326.302h-3.865c-1.814,0-3.037,0.209-3.666,0.625c-0.631,0.416-0.944,1.041-0.944,1.873
			c0,0.699,0.256,1.275,0.769,1.725c0.512,0.449,1.251,0.674,2.217,0.674c0.703,0,1.384-0.1,2.043-0.299
			c0.658-0.199,1.244-0.475,1.756-0.824s0.923-0.758,1.23-1.225c0.307-0.467,0.461-0.982,0.461-1.549V326.302z"/>
		<path fill="#AFB2B6" d="M291.665,336.648c0,1.832-0.307,3.43-0.922,4.797c-0.615,1.365-1.486,2.498-2.613,3.398
			s-2.467,1.574-4.018,2.023c-1.552,0.451-3.25,0.676-5.094,0.676c-1.846,0-3.455-0.201-4.832-0.6
			c-1.375-0.4-2.488-0.883-3.337-1.449c-0.352-0.234-0.644-0.525-0.878-0.875c-0.235-0.35-0.396-0.725-0.483-1.125
			c-0.087-0.4-0.103-0.791-0.044-1.174s0.176-0.742,0.352-1.074c0.234-0.434,0.52-0.75,0.855-0.949
			c0.338-0.201,0.703-0.309,1.099-0.326s0.805,0.033,1.229,0.15c0.424,0.115,0.842,0.275,1.252,0.475
			c0.555,0.266,1.215,0.525,1.977,0.775c0.76,0.25,1.625,0.375,2.59,0.375c1.904,0,3.287-0.418,4.15-1.25
			c0.863-0.834,1.295-1.982,1.295-3.449v-1.648c-0.702,0.566-1.471,0.941-2.305,1.125c-0.834,0.182-1.721,0.275-2.657,0.275
			c-1.581,0-3.089-0.201-4.522-0.602c-1.436-0.398-2.701-1.016-3.799-1.85c-1.098-0.832-1.984-1.906-2.657-3.223
			c-0.674-1.316-1.054-2.875-1.142-4.672c-0.06-0.834-0.088-1.65-0.088-2.449s0.028-1.6,0.088-2.398
			c0.146-1.801,0.563-3.355,1.251-4.674c0.688-1.314,1.581-2.391,2.679-3.223s2.35-1.451,3.756-1.85c1.404-0.4,2.883-0.6,4.435-0.6
			c2.254,0,4.201,0.467,5.841,1.398c0.731-0.766,1.654-1.148,2.767-1.148c0.468,0,0.929,0.074,1.384,0.225
			c0.453,0.15,0.855,0.375,1.207,0.676c0.352,0.299,0.637,0.682,0.856,1.148s0.329,1.016,0.329,1.648V336.648z M274.539,321.353
			c-0.06,0.734-0.089,1.568-0.089,2.5c0,0.934,0.029,1.832,0.089,2.699c0.116,1.367,0.599,2.424,1.448,3.174
			s1.947,1.125,3.294,1.125c1.376,0,2.481-0.293,3.315-0.875c0.835-0.582,1.324-1.574,1.472-2.975
			c0.087-0.865,0.138-1.799,0.153-2.799c0.015-0.998-0.037-1.898-0.153-2.697c-0.176-1.367-0.675-2.406-1.493-3.125
			c-0.82-0.715-1.918-1.074-3.294-1.074c-1.347,0-2.444,0.309-3.294,0.924C275.138,318.847,274.655,319.888,274.539,321.353z"/>
		<path fill="#AFB2B6" d="M308.749,311.16c1.609,0,3.133,0.258,4.566,0.773c1.435,0.518,2.693,1.225,3.777,2.125
			c1.082,0.898,1.939,1.973,2.568,3.223s0.945,2.592,0.945,4.023c0,1.166-0.17,2.098-0.506,2.799
			c-0.336,0.699-0.775,1.24-1.317,1.625c-0.542,0.383-1.163,0.633-1.866,0.748c-0.703,0.117-1.42,0.176-2.152,0.176h-10.979
			c0.028,1.432,0.563,2.541,1.604,3.324c1.038,0.783,2.48,1.174,4.325,1.174c1.17,0,2.269-0.191,3.294-0.574
			c1.024-0.383,1.873-0.709,2.547-0.975c0.731-0.268,1.449-0.383,2.151-0.35c0.702,0.031,1.274,0.449,1.713,1.248
			c0.352,0.633,0.483,1.324,0.396,2.074s-0.498,1.357-1.23,1.824c-0.85,0.633-2.063,1.191-3.645,1.676
			c-1.58,0.482-3.381,0.725-5.401,0.725c-1.962,0-3.733-0.252-5.313-0.75c-1.581-0.5-2.936-1.209-4.063-2.125
			s-2.014-2.008-2.656-3.273c-0.645-1.266-1.012-2.666-1.099-4.197c-0.088-1.732-0.088-3.432,0-5.1
			c0.028-1.365,0.352-2.664,0.966-3.896c0.615-1.232,1.464-2.316,2.548-3.25c1.083-0.932,2.371-1.674,3.864-2.223
			S306.933,311.16,308.749,311.16z M312.262,321.304c0.497,0,0.841-0.033,1.032-0.1c0.189-0.066,0.285-0.25,0.285-0.549
			c0-1.066-0.461-1.957-1.383-2.674c-0.923-0.717-2.086-1.076-3.492-1.076c-0.674,0-1.303,0.084-1.888,0.25
			c-0.586,0.168-1.105,0.408-1.56,0.725c-0.453,0.316-0.813,0.701-1.076,1.15c-0.263,0.449-0.395,0.941-0.395,1.475v0.799H312.262z"
			/>
	</g>
</g>
</svg>
