<?xml version="1.0" encoding="utf-8"?>
<!-- Generator: Adobe Illustrator 16.0.0, SVG Export Plug-In . SVG Version: 6.00 Build 0)  -->
<!DOCTYPE svg PUBLIC "-//W3C//DTD SVG 1.1//EN" "http://www.w3.org/Graphics/SVG/1.1/DTD/svg11.dtd">
<svg version="1.1" id="레이어_1" xmlns="http://www.w3.org/2000/svg" xmlns:xlink="http://www.w3.org/1999/xlink" x="0px"
	 y="0px" width="417.88px" height="417.879px" viewBox="0 0 417.88 417.879" enable-background="new 0 0 417.88 417.879"
	 xml:space="preserve">
<rect fill-rule="evenodd" clip-rule="evenodd" fill="#BCBEC0" width="417.88" height="417.879"/>
<path fill-rule="evenodd" clip-rule="evenodd" fill="#F1F2F2" d="M208.433,347.535c-42.33,0.002-84.66-0.068-126.989,0.1
	c-4.672,0.018-6.513-1.031-6.245-6.033c0.57-10.637-0.8-21.371,0.75-31.951c3.146-21.477,15.069-37.838,31.481-51.109
	c24.254-19.611,52.729-28.901,83.301-31.848c32.43-3.125,63.889,1.296,93.505,15.484c23.623,11.317,43.099,27.125,53.558,52.087
	c2.997,7.152,4.638,14.604,4.731,22.352c0.101,8.332-0.252,16.68,0.16,24.992c0.248,5.01-1.598,6.041-6.262,6.021
	C293.76,347.464,251.097,347.533,208.433,347.535z"/>
<path fill-rule="evenodd" clip-rule="evenodd" fill="#F1F2F2" d="M208.907,202.294c-36.351-0.008-66.322-30.04-66.161-66.293
	c0.163-36.659,29.625-65.806,66.467-65.756c36.615,0.05,66.101,29.716,65.91,66.317
	C274.938,172.667,245.083,202.303,208.907,202.294z"/>
</svg>
