<?xml version="1.0" encoding="utf-8"?>
<!-- Generator: Adobe Illustrator 16.0.0, SVG Export Plug-In . SVG Version: 6.00 Build 0)  -->
<!DOCTYPE svg PUBLIC "-//W3C//DTD SVG 1.1//EN" "http://www.w3.org/Graphics/SVG/1.1/DTD/svg11.dtd">
<svg version="1.1" id="레이어_1" xmlns="http://www.w3.org/2000/svg" xmlns:xlink="http://www.w3.org/1999/xlink" x="0px"
	 y="0px" width="1420px" height="584px" viewBox="0 0 1420 584" enable-background="new 0 0 1420 584" xml:space="preserve">
<path fill-rule="evenodd" clip-rule="evenodd" fill="#864CFF" d="M888.128,216.271c1.274,3.496,1.461,7.2,1.958,10.83
	c0.926,6.771,1.662,13.568,2.447,20.358c0.237,2.051,0.32,4.122,0.488,6.176c1.612,19.836,1.201,39.719,0.986,59.588
	c-0.088,8.098-0.732,16.205-1.46,24.277c-1.232,13.691-2.896,27.322-5.308,40.881c-2.756,15.496-6.484,30.708-11.649,45.555
	c-4.912,14.117-11.167,27.613-19.386,40.156c-4.767,7.273-9.96,14.246-16.099,20.384c-12.022,12.022-25.705,21.671-41.334,28.614
	c-10.418,4.627-21.104,8.299-32.159,10.934c-8.874,2.115-17.845,3.699-26.906,4.881c-16.603,2.162-33.276,2.236-49.947,1.827
	c-7.152-0.176-14.313-0.897-21.456-1.759c-9.654-1.166-19.216-2.66-28.611-5.137c-15.044-3.969-29.249-9.834-42.535-18.072
	c-12.011-7.447-22.533-16.58-32.123-26.82c-9.231-9.859-16.888-20.916-23.279-32.813c-9.61-17.888-15.387-37.105-19.749-56.845
	c-2.272-10.282-3.994-20.628-5.463-31.046c-1.349-9.564-2.274-19.154-3.003-28.781c-0.515-6.785-0.604-13.582-1.039-20.355
	c-0.63-9.818-0.457-19.627-0.307-29.428c0.179-11.681,0.569-23.384,1.521-35.023c1.589-19.435,4.25-38.718,8.76-57.753
	c3.886-16.404,9.017-32.302,16.614-47.354c5.329-10.558,11.641-20.474,19.44-29.441c10.97-12.612,23.738-22.93,38.269-31.161
	c14.35-8.13,29.616-13.819,45.598-17.736c8.955-2.194,18.019-3.679,27.149-4.911c16.844-2.273,33.777-2.308,50.692-1.837
	c11.44,0.319,22.831,1.55,34.144,3.674c13.569,2.547,26.69,6.289,39.191,12.161c0.295,0.14,0.639,0.177,0.96,0.261
	c-8.367,15.479-11.728,31.977-9.831,49.471c0.796,7.333,2.302,14.539,5.422,21.307c0.24,1.663,1.142,3.073,1.762,4.59
	c1.937,4.738,4.965,8.885,7.297,13.409c-0.007,2.69,0.786,5.233,1.438,7.803c2.639,10.399,7.483,19.702,14.479,27.775
	c7.87,9.085,17.411,15.886,28.804,20.03c8.37,3.044,17.003,4.404,25.841,4.269C875.977,219.11,882.118,217.99,888.128,216.271z
	 M748.117,296.83c-0.03-13.045-0.063-26.078-0.848-39.117c-0.565-9.414-1.183-18.81-2.105-28.195
	c-0.854-8.688-2.145-17.299-4.069-25.807c-1.983-8.768-4.672-17.249-9.44-25.024c-7.955-12.971-19.53-18.26-34.408-16.813
	c-3.509,0.341-6.896,1.406-10.048,3.064c-9.55,5.022-14.485,13.655-18.105,23.279c-3.493,9.285-5.024,19.012-6.568,28.76
	c-1.37,8.646-2.108,17.352-2.814,26.048c-0.556,6.843-0.689,13.733-1.033,20.603c-0.353,7.05-0.185,14.12-0.466,21.185
	c-0.254,6.376-0.262,12.779,0.254,19.188c0.56,6.946,0.105,13.942,0.523,20.927c0.451,7.516,0.969,15.021,1.531,22.529
	c0.684,9.137,1.924,18.182,3.587,27.18c1.876,10.146,4.405,20.076,9.462,29.193c2.576,4.645,5.469,9.057,9.541,12.535
	c6.54,5.588,14.154,7.729,22.696,7.041c8.2-0.66,15.18-4.006,20.746-9.857c7.395-7.775,11.182-17.555,14.071-27.693
	c3.446-12.092,4.78-24.553,5.905-37c0.908-10.059,1.221-20.178,1.544-30.279C748.304,311.336,748.117,304.08,748.117,296.83z"/>
<path fill-rule="evenodd" clip-rule="evenodd" fill="#864CFF" d="M390.545,319.365c-0.004,2.33,0.436,3.07,2.937,3.043
	c13.081-0.143,26.164-0.07,39.246-0.064c6.944,0.003,12.84,5.719,12.851,12.705c0.045,31.496,0.034,62.994,0.007,94.49
	c-0.006,7.018-6.534,12.475-12.595,12.375c-13.329-0.215-26.664-0.018-39.995-0.117c-2.033-0.014-2.442,0.611-2.437,2.514
	c0.063,22.248-0.08,44.496,0.117,66.743c0.056,6.364-5.985,12.407-12.462,12.377c-35.413-0.165-70.827-0.077-106.24-0.079
	c-7.076,0-12.379-5.281-12.38-12.328c-0.002-22.164-0.036-44.33,0.053-66.494c0.009-2.199-0.522-2.736-2.731-2.734
	c-68.494,0.064-136.987,0.004-205.48,0.133c-6.389,0.012-12.891-5.584-12.878-12.889c0.059-33.246,0.045-66.494,0.003-99.74
	c-0.006-4.748,2.843-7.939,5.599-11.23c6.896-8.236,204.324-242.822,209.106-248.508c3.245-3.859,6.476-7.735,9.865-11.467
	c2.381-2.623,5.472-3.787,9.077-3.784c35.33,0.031,70.66,0.018,105.99,0.019c7.057,0,12.402,5.305,12.402,12.31
	C390.6,108.801,390.619,277.287,390.545,319.365z M183.398,322.254c0.836,0.051,1.141,0.085,1.445,0.085
	c24.247,0.003,48.495-0.031,72.742,0.058c2.334,0.008,2.01-1.253,2.01-2.656c-0.004-28.248-0.003-56.494-0.003-84.741
	c0-0.617,0-1.234,0-2.433C234.009,262.68,208.845,292.301,183.398,322.254z"/>
<path fill-rule="evenodd" clip-rule="evenodd" fill="#864CFF" d="M1313.146,196.818c0,42.165,0.02,84.33-0.054,126.495
	c-0.004,2.289,0.585,2.874,2.862,2.854c13.164-0.111,26.331-0.059,39.497-0.053c6.595,0.004,12.655,5.787,12.667,12.419
	c0.06,31.666,0.074,63.331-0.02,94.997c-0.018,6.135-5.874,12.218-12.322,12.138c-13.331-0.164-26.666,0.018-39.997-0.112
	c-2.309-0.022-2.688,0.685-2.681,2.789c0.076,22.165,0.048,44.331,0.045,66.497c0,6.902-5.333,12.278-12.19,12.28
	c-35.582,0.003-71.164,0.004-106.746-0.002c-6.673,0-12.065-5.436-12.066-12.148c-0.005-22,0.008-43.999-0.011-65.998
	c-0.004-3.888,0.525-3.345-3.246-3.346c-68.331-0.013-136.662-0.053-204.992,0.065c-6.243,0.011-12.789-5.51-12.78-12.717
	c0.039-33.249,0.043-66.497-0.012-99.746c-0.008-4.745,2.722-7.983,5.489-11.28c6.965-8.297,212.375-252.005,217.018-257.81
	c3.091-3.865,6.679-6.093,11.8-6.082c35.082,0.076,70.165,0.13,105.246-0.042c6.5-0.032,12.595,6.238,12.571,12.554
	C1313.072,112.654,1313.146,154.736,1313.146,196.818z M1105.876,326.113c24.994,0,49.325-0.039,73.655,0.064
	c2.355,0.01,2.655-0.762,2.65-2.814c-0.063-28.083-0.042-56.167-0.042-84.25c0-0.716,0-1.433,0-2.775
	C1156.584,266.421,1131.426,296.037,1105.876,326.113z"/>
<path fill-rule="evenodd" clip-rule="evenodd" fill="#3D3D0E" d="M799.184,159.33c3.138,3.521,5.871,7.38,9.278,10.683
	c15.431,14.96,33.727,23.31,55.283,24.475c6.697,0.361,13.271-0.395,19.868-1.211c1.921,7.583,3.268,15.278,4.515,22.994
	c-6.01,1.719-12.151,2.84-18.384,2.936c-8.838,0.136-17.471-1.225-25.841-4.269c-11.393-4.145-20.934-10.945-28.804-20.03
	c-6.995-8.074-11.84-17.376-14.479-27.775C799.97,164.563,799.177,162.02,799.184,159.33z"/>
<g>
	<circle fill-rule="evenodd" clip-rule="evenodd" fill="#EA934F" cx="865.881" cy="110.882" r="83.698"/>
	<g>
		<path fill-rule="evenodd" clip-rule="evenodd" fill="#FEFEFE" d="M858.177,92.161c0.002-8.492-0.048-16.985,0.021-25.477
			c0.039-4.8,3.155-8.467,7.74-9.401c4.433-0.903,8.813,1.329,10.667,5.457c0.658,1.463,0.901,3.017,0.901,4.616
			c-0.002,16.568,0.021,33.137-0.014,49.705c-0.013,6.195-4.015,10.369-9.746,10.337c-5.687-0.032-9.556-4.262-9.568-10.509
			C858.162,108.646,858.175,100.404,858.177,92.161z"/>
		<path fill-rule="evenodd" clip-rule="evenodd" fill="#FEFEFE" d="M871.59,140.936c7.054,3.695,6.969,11.241,3.492,15.262
			c-2.731,3.159-6.237,3.997-10.175,2.902c-3.279-0.912-6.47-4.529-6.738-7.286c-0.435-4.464,1.077-7.96,5.007-10.272
			c0.711-0.418,1.498-0.708,2.252-1.056C867.518,140.16,869.563,140.412,871.59,140.936z"/>
	</g>
</g>
</svg>
