<svg width="216" height="36" viewBox="0 0 216 36" fill="none" xmlns="http://www.w3.org/2000/svg">
<path d="M40.1264 4.24188C39.8437 3.50455 39.459 2.91469 38.9769 2.48151C38.4949 2.04833 37.9479 1.74418 37.3361 1.56907C36.7243 1.39395 36.0661 1.3064 35.3662 1.3064C34.6662 1.3064 33.9895 1.39395 33.3313 1.56907C32.6731 1.74418 32.0845 2.04833 31.5607 2.48151C31.0369 2.91469 30.6198 3.50455 30.3138 4.24188C30.0079 4.98382 29.855 5.89626 29.855 6.97921V10.9562H10.6933V6.97921C10.6933 5.89165 10.5403 4.97921 10.2344 4.24188C9.92848 3.50455 9.51132 2.91469 8.98755 2.48151C8.46377 2.04833 7.87048 1.74418 7.21692 1.56907C6.55873 1.39395 5.882 1.3064 5.18209 1.3064C3.78228 1.3064 2.56787 1.70732 1.5435 2.51377C0.514501 3.31561 0 4.80409 0 6.97921V30.1313C0 30.7857 0.0417163 31.3801 0.129784 31.9239C0.217852 32.4677 0.444974 32.9469 0.820421 33.3571C1.19123 33.7718 1.72891 34.099 2.42882 34.334C3.12872 34.5737 4.0882 34.6935 5.31651 34.6935H35.241C36.4647 34.6935 37.4288 34.5737 38.1287 34.334C38.8286 34.0944 39.3663 33.7672 39.7371 33.3571C40.1079 32.9423 40.3397 32.4677 40.4277 31.9239C40.5158 31.3801 40.5575 30.781 40.5575 30.1313V6.97921C40.5575 5.89165 40.4138 4.97921 40.1311 4.24188H40.1264ZM29.8596 26.0898H10.6933V19.5691H29.8596V26.0898Z" fill="#864CFF"/>
<path d="M93.6413 21.7282C93.5254 21.1844 93.3029 20.7051 92.9738 20.295C92.6447 19.8802 92.1858 19.5577 91.5925 19.318C90.9992 19.0784 90.2437 18.9586 89.326 18.9586H77.5342V13.719C77.5342 12.6314 77.3812 11.719 77.0753 10.9816C76.7694 10.2443 76.3754 9.65444 75.8933 9.22126C75.4113 8.78808 74.855 8.48393 74.22 8.30882C73.585 8.1337 72.9176 8.04614 72.2176 8.04614C70.8178 8.04614 69.5803 8.44706 68.5095 9.25352C67.4388 10.06 66.9011 11.5484 66.9011 13.719V18.9586H55.0444C54.122 18.9586 53.3665 19.0784 52.7778 19.318C52.1846 19.5577 51.7257 19.8849 51.3966 20.295C51.0675 20.7097 50.845 21.189 50.7291 21.7282C50.6132 22.2719 50.5576 22.871 50.5576 23.5208C50.5576 24.0415 50.6132 24.5761 50.7291 25.1199C50.845 25.6637 51.0675 26.1429 51.3966 26.5531C51.7257 26.9678 52.1846 27.3042 52.7778 27.5623C53.3711 27.8203 54.1267 27.954 55.0444 27.954H89.3167C90.2345 27.954 90.9946 27.8249 91.5833 27.5623C92.172 27.2996 92.6355 26.9632 92.9646 26.5531C93.2936 26.1383 93.5161 25.6637 93.632 25.1199C93.7479 24.5761 93.8035 24.0461 93.8035 23.5208C93.8035 22.8664 93.7479 22.2719 93.632 21.7282H93.6413Z" fill="#864CFF"/>
<path d="M143.893 5.08514C143.587 4.34781 143.193 3.75795 142.711 3.32477C142.229 2.89159 141.673 2.58745 141.038 2.41233C140.403 2.23722 139.735 2.14966 139.035 2.14966H109.12C107.72 2.14966 106.483 2.55058 105.412 3.35703C104.341 4.16348 103.804 5.65196 103.804 7.82247V28.9561C103.804 29.5644 103.845 30.1635 103.933 30.7487C104.022 31.334 104.23 31.8593 104.555 32.3156C104.884 32.7718 105.375 33.1404 106.029 33.4262C106.687 33.7073 107.605 33.8501 108.782 33.8501H139.351C140.486 33.8501 141.395 33.7073 142.071 33.4262C142.748 33.1451 143.253 32.7718 143.583 32.3156C143.912 31.8593 144.116 31.3386 144.204 30.7487C144.292 30.1635 144.333 29.5644 144.333 28.9561V7.82247C144.333 6.73491 144.18 5.82247 143.875 5.08514H143.893Z" fill="#864CFF"/>
<path d="M129.2 17.9976L118.966 23.9607V12.0344L129.2 17.9976Z" fill="white"/>
<path d="M194.464 4.23968C194.181 3.50236 193.797 2.91249 193.315 2.47931C192.833 2.04613 192.286 1.74199 191.674 1.56687C191.062 1.39176 190.404 1.3042 189.704 1.3042C189.004 1.3042 188.327 1.39176 187.669 1.56687C187.011 1.74199 186.422 2.04613 185.898 2.47931C185.375 2.91249 184.957 3.50236 184.651 4.23968C184.346 4.98162 184.193 5.89406 184.193 6.97701V10.954H165.026V6.97701C165.026 5.88945 164.873 4.97701 164.567 4.23968C164.261 3.50236 163.844 2.91249 163.321 2.47931C162.797 2.04613 162.203 1.74199 161.55 1.56687C160.892 1.39176 160.215 1.3042 159.515 1.3042C158.115 1.3042 156.901 1.70512 155.877 2.51157C154.848 3.31802 154.333 4.8065 154.333 6.98162V30.1337C154.333 30.7881 154.375 31.3825 154.463 31.9263C154.551 32.4701 154.778 32.9494 155.153 33.3595C155.524 33.7742 156.062 34.1014 156.762 34.3365C157.462 34.5761 158.421 34.6959 159.65 34.6959H189.574C190.798 34.6959 191.762 34.5761 192.462 34.3365C193.162 34.0968 193.699 33.7696 194.07 33.3595C194.441 32.9448 194.673 32.4701 194.761 31.9263C194.849 31.3825 194.891 30.7835 194.891 30.1337V6.97701C194.891 5.88945 194.747 4.97701 194.464 4.23968ZM184.197 26.0876H165.031V19.5669H184.197V26.0876Z" fill="#864CFF"/>
<path d="M215.065 2.93548C214.759 2.19816 214.365 1.60829 213.883 1.17512C213.401 0.741935 212.845 0.437788 212.21 0.262673C211.575 0.0875576 210.907 0 210.207 0C208.807 0 207.57 0.400922 206.499 1.20737C205.428 2.01382 204.891 3.5023 204.891 5.67281V30.2581C204.891 31.3871 205.03 32.3226 205.317 33.0645C205.6 33.8018 205.994 34.3917 206.499 34.8249C207 35.2581 207.57 35.5622 208.205 35.7373C208.84 35.9124 209.507 36 210.207 36C210.907 36 211.575 35.9124 212.21 35.7373C212.845 35.5622 213.401 35.2581 213.883 34.8249C214.365 34.3917 214.759 33.8018 215.065 33.0645C215.371 32.3226 215.524 31.3917 215.524 30.2581V5.67281C215.524 4.58525 215.371 3.67281 215.065 2.93548Z" fill="#864CFF"/>
</svg>
