<svg width="79" height="51" viewBox="0 0 79 51" fill="none" xmlns="http://www.w3.org/2000/svg">
<rect x="1" y="1" width="77" height="49" stroke="#7C7C7C" stroke-width="2"/>
<path d="M47 30L36.5 36.0622L36.5 23.9378L47 30Z" fill="#7C7C7C"/>
<path d="M28.4734 20.789L28.5347 21.0313C28.6545 21.001 28.7639 20.939 28.8514 20.8517C28.9389 20.7645 29.0012 20.6553 29.0318 20.5356C29.0624 20.4158 29.0602 20.2901 29.0253 20.1716C28.9909 20.0547 28.9261 19.9491 28.8375 19.8655L25.9722 17.0002L28.8376 14.1348C28.9261 14.0512 28.9908 13.9455 29.025 13.8286C29.0597 13.7103 29.0618 13.5848 29.0313 13.4654C29.001 13.3457 28.939 13.2365 28.8518 13.1491C28.7645 13.0616 28.6553 12.9993 28.5356 12.9687C28.4159 12.9381 28.2901 12.9403 28.1716 12.9752C28.0547 13.0096 27.9491 13.0744 27.8656 13.163L25.0003 16.0283L22.132 13.1601L22.1319 13.16C22.003 13.0313 21.8283 12.9589 21.6461 12.9589C21.4639 12.9589 21.2892 13.0313 21.1603 13.16L21.1603 13.16L21.16 13.1602C21.0313 13.2891 20.959 13.4639 20.959 13.6461C20.959 13.8282 21.0313 14.003 21.16 14.1319L21.1602 14.132L24.0284 17.0002L21.1602 19.8684L21.16 19.8683L21.1539 19.8749C21.0326 20.0052 20.9666 20.1775 20.9696 20.3556C20.9727 20.5336 21.0447 20.7035 21.1704 20.8296L21.1709 20.8301C21.297 20.9558 21.4669 21.0278 21.6449 21.0309C21.823 21.0339 21.9952 20.9679 22.1256 20.8466L22.1257 20.8467L22.132 20.8403L25.0003 17.9721L27.8657 20.8376C27.9493 20.926 28.055 20.9907 28.1719 21.0249C28.2903 21.0596 28.4159 21.0618 28.5355 21.0311L28.4734 20.789ZM28.4734 20.789C28.3974 20.8085 28.3175 20.8071 28.2421 20.785C28.1668 20.763 28.0988 20.721 28.0453 20.6636L28.6636 20.0452C28.7212 20.0987 28.7633 20.1667 28.7855 20.2421C28.8076 20.3175 28.8091 20.3975 28.7896 20.4736C28.7701 20.5498 28.7305 20.6192 28.6748 20.6747C28.6192 20.7302 28.5496 20.7697 28.4734 20.789Z" fill="#7C7C7C" stroke="#7C7C7C" stroke-width="0.5"/>
<path d="M58.4734 20.789L58.5347 21.0313C58.6545 21.001 58.7639 20.939 58.8514 20.8517C58.9389 20.7645 59.0012 20.6553 59.0318 20.5356C59.0624 20.4158 59.0602 20.2901 59.0253 20.1716C58.9909 20.0547 58.9261 19.9491 58.8375 19.8655L55.9722 17.0002L58.8376 14.1348C58.9261 14.0512 58.9908 13.9455 59.025 13.8286C59.0597 13.7103 59.0618 13.5848 59.0313 13.4654C59.001 13.3457 58.939 13.2365 58.8518 13.1491C58.7645 13.0616 58.6553 12.9993 58.5356 12.9687C58.4159 12.9381 58.2901 12.9403 58.1716 12.9752C58.0547 13.0096 57.9491 13.0744 57.8656 13.163L55.0003 16.0283L52.132 13.1601L52.1319 13.16C52.003 13.0313 51.8283 12.9589 51.6461 12.9589C51.4639 12.9589 51.2892 13.0313 51.1603 13.16L51.1603 13.16L51.16 13.1602C51.0313 13.2891 50.959 13.4639 50.959 13.6461C50.959 13.8282 51.0313 14.003 51.16 14.1319L51.1602 14.132L54.0284 17.0002L51.1602 19.8684L51.16 19.8683L51.1539 19.8749C51.0326 20.0052 50.9666 20.1775 50.9696 20.3556C50.9727 20.5336 51.0447 20.7035 51.1704 20.8296L51.1709 20.8301C51.297 20.9558 51.4669 21.0278 51.6449 21.0309C51.823 21.0339 51.9952 20.9679 52.1256 20.8466L52.1257 20.8467L52.132 20.8403L55.0003 17.9721L57.8657 20.8376C57.9493 20.926 58.055 20.9907 58.1719 21.0249C58.2903 21.0596 58.4159 21.0618 58.5355 21.0311L58.4734 20.789ZM58.4734 20.789C58.3974 20.8085 58.3175 20.8071 58.2421 20.785C58.1668 20.763 58.0988 20.721 58.0453 20.6636L58.6636 20.0452C58.7212 20.0987 58.7633 20.1667 58.7855 20.2421C58.8076 20.3175 58.8091 20.3975 58.7896 20.4736C58.7701 20.5498 58.7305 20.6192 58.6748 20.6747C58.6192 20.7302 58.5496 20.7697 58.4734 20.789Z" fill="#7C7C7C" stroke="#7C7C7C" stroke-width="0.5"/>
</svg>
